<svg xmlns="http://www.w3.org/2000/svg" xmlns:xlink="http://www.w3.org/1999/xlink" width="829.386" height="612.189" viewBox="0 0 829.386 612.189">
  <defs>
    <radialGradient id="radial-gradient" cx="0.461" cy="0.5" r="0.5" gradientUnits="objectBoundingBox">
      <stop offset="0" stop-color="#0c6598"/>
      <stop offset="1" stop-color="#00a2ff"/>
    </radialGradient>
  </defs>
  <path id="Path_16" data-name="Path 16" d="M-230.178,1149.691c-61.351.289-114.887-9.181-167.842-21.03-75.263-16.841-151.311-30.246-228.158-41.359-97.456-14.093-167.054-72.484-185.336-152.426-6.6-28.883-.445-57.448,7.135-85.748,16.908-63.12,55.349-117.214,103.119-167.321,39.756-41.7,83.9-79.612,139.348-107.474,44.733-22.478,92.887-35.751,145.554-36.766,53.474-1.03,102.025,11.584,142.991,39.765,83.246,57.263,158.909,120.589,217.615,196.438C-19.181,821.021,6.107,872.186,13.033,928.3c7.814,63.31-5.539,122.142-63.535,168.622-37.451,30.014-84.24,44.159-135.08,50.364C-202.388,1149.332-219.29,1149.517-230.178,1149.691Z" transform="translate(814.319 -537.509)" fill="url(#radial-gradient)"/>
</svg>
